<svg xmlns="http://www.w3.org/2000/svg" width="49.896999" height="51.976002" fill="none" viewBox="0 0 49.896999 51.976002"><g clip-path="url(#a)" transform="matrix(2.16567 0 0 2.16567 -49.724 -30.32)"><mask id="b" width="24" height="24" x="22" y="14" maskUnits="userSpaceOnUse"><path fill="#fff" d="M34 20.36c3.115 0 5.635 2.712 5.515 5.854-.113 2.988-2.661 5.426-5.652 5.426h-3.945a.48.48 0 0 1-.48-.48V20.84c0-.264.216-.48.48-.48h4.08M34 14h-9.6c-.794 0-1.44.646-1.44 1.44v21.12c0 .794.646 1.44 1.44 1.44H34c6.626 0 12-5.374 12-12s-5.374-12-12-12"/></mask><g mask="url(#b)"><path fill="url(#c)" d="M22.96 14H46v24H22.96Z" style="fill:url(#c)"/><path fill="url(#d)" d="M46 38h23.04v24H46Z" style="fill:url(#d)" transform="rotate(180 46 38)"/><path fill="url(#e)" d="M22.96 14H46v24H22.96Z" style="fill:url(#e)"/><path fill="url(#f)" d="M22.96 14H46v24H22.96Z" style="fill:url(#f)"/><path fill="url(#g)" d="M22.96 14H46v24H22.96Z" style="fill:url(#g)"/></g></g><defs><radialGradient id="c" cx="0" cy="0" r="1" gradientTransform="matrix(18.48002 20.52003 -13.5718 12.22255 23.32 14.48)" gradientUnits="userSpaceOnUse"><stop stop-color="#1E84FF"/><stop offset="1" stop-color="#1E84FF"/></radialGradient><radialGradient id="d" cx="0" cy="0" r="1" gradientTransform="matrix(0 32.76 -116.718 0 62.68 38)" gradientUnits="userSpaceOnUse"><stop offset="0.0710642" stop-color="#F95F65"/><stop offset="0.255335" stop-color="#F95F97" stop-opacity="0.85"/><stop offset="0.488545" stop-color="#E952BE" stop-opacity="0.3"/><stop offset="0.64993" stop-color="#1E84FF" stop-opacity="0"/></radialGradient><radialGradient id="e" cx="0" cy="0" r="1" gradientTransform="matrix(-8.64002 9.11997 -9.68288 -9.1733 43.12 17.96)" gradientUnits="userSpaceOnUse"><stop stop-color="#22BB64"/><stop offset="0.598459" stop-color="#22BBA4" stop-opacity="0.5"/><stop offset="1" stop-color="#61BACA" stop-opacity="0"/></radialGradient><radialGradient id="f" cx="0" cy="0" r="1" gradientTransform="matrix(-11.52 -1.91993 2.31992 -13.92 46 27.92)" gradientUnits="userSpaceOnUse"><stop stop-color="#2FD800"/><stop offset="1" stop-color="#12EB1A" stop-opacity="0"/></radialGradient><radialGradient id="g" cx="0" cy="0" r="1" gradientTransform="matrix(-7.56 -10.2 14.07972 -10.43557 41.32 35.72)" gradientUnits="userSpaceOnUse"><stop stop-color="#FFC622"/><stop offset="0.524982" stop-color="#FFC622" stop-opacity="0.6"/><stop offset="1" stop-color="#FFC622" stop-opacity="0"/></radialGradient><clipPath id="a"><path fill="#fff" d="M22 14h24v24H22Z"/></clipPath></defs></svg>