<svg xmlns="http://www.w3.org/2000/svg" xmlns:xlink="http://www.w3.org/1999/xlink" xml:space="preserve" overflow="hidden" viewBox="0 0 268.1522 273.8827"><defs><linearGradient id="a"><stop offset="0" stop-color="#0fbc5c"/><stop offset="1" stop-color="#0cba65"/></linearGradient><linearGradient id="g"><stop offset=".2312727" stop-color="#0fbc5f"/><stop offset=".3115468" stop-color="#0fbc5f"/><stop offset=".3660131" stop-color="#0fbc5e"/><stop offset=".4575163" stop-color="#0fbc5d"/><stop offset=".540305" stop-color="#12bc58"/><stop offset=".6993464" stop-color="#28bf3c"/><stop offset=".7712418" stop-color="#38c02b"/><stop offset=".8605665" stop-color="#52c218"/><stop offset=".9150327" stop-color="#67c30f"/><stop offset="1" stop-color="#86c504"/></linearGradient><linearGradient id="h"><stop offset=".1416122" stop-color="#1abd4d"/><stop offset=".2475151" stop-color="#6ec30d"/><stop offset=".3115468" stop-color="#8ac502"/><stop offset=".3660131" stop-color="#a2c600"/><stop offset=".4456735" stop-color="#c8c903"/><stop offset=".540305" stop-color="#ebcb03"/><stop offset=".6156363" stop-color="#f7cd07"/><stop offset=".6993454" stop-color="#fdcd04"/><stop offset=".7712418" stop-color="#fdce05"/><stop offset=".8605661" stop-color="#ffce0a"/></linearGradient><linearGradient id="f"><stop offset=".3159041" stop-color="#ff4c3c"/><stop offset=".6038179" stop-color="#ff692c"/><stop offset=".7268366" stop-color="#ff7825"/><stop offset=".884534" stop-color="#ff8d1b"/><stop offset="1" stop-color="#ff9f13"/></linearGradient><linearGradient id="b"><stop offset=".2312727" stop-color="#ff4541"/><stop offset=".3115468" stop-color="#ff4540"/><stop offset=".4575163" stop-color="#ff4640"/><stop offset=".540305" stop-color="#ff473f"/><stop offset=".6993464" stop-color="#ff5138"/><stop offset=".7712418" stop-color="#ff5b33"/><stop offset=".8605665" stop-color="#ff6c29"/><stop offset="1" stop-color="#ff8c18"/></linearGradient><linearGradient id="d"><stop offset=".4084578" stop-color="#fb4e5a"/><stop offset="1" stop-color="#ff4540"/></linearGradient><linearGradient id="c"><stop offset=".1315461" stop-color="#0cba65"/><stop offset=".2097843" stop-color="#0bb86d"/><stop offset=".2972969" stop-color="#09b479"/><stop offset=".3962575" stop-color="#08ad93"/><stop offset=".4771242" stop-color="#0aa6a9"/><stop offset=".5684245" stop-color="#0d9cc6"/><stop offset=".667385" stop-color="#1893dd"/><stop offset=".7687273" stop-color="#258bf1"/><stop offset=".8585063" stop-color="#3086ff"/></linearGradient><linearGradient id="e"><stop offset=".3660131" stop-color="#ff4e3a"/><stop offset=".4575163" stop-color="#ff8a1b"/><stop offset=".540305" stop-color="#ffa312"/><stop offset=".6156363" stop-color="#ffb60c"/><stop offset=".7712418" stop-color="#ffcd0a"/><stop offset=".8605665" stop-color="#fecf0a"/><stop offset=".9150327" stop-color="#fecf08"/><stop offset="1" stop-color="#fdcd01"/></linearGradient><linearGradient xlink:href="#a" id="s" x1="219.6997" x2="254.4673" y1="329.5351" y2="329.5351" gradientUnits="userSpaceOnUse"/><radialGradient xlink:href="#b" id="m" cx="109.6267" cy="135.8619" r="71.46001" fx="109.6267" fy="135.8619" gradientTransform="matrix(-1.93688 1.043 1.45573 2.55542 290.525 -400.634)" gradientUnits="userSpaceOnUse"/><radialGradient xlink:href="#c" id="n" cx="45.25866" cy="279.2738" r="71.46001" fx="45.25866" fy="279.2738" gradientTransform="matrix(-3.5126 -4.45809 -1.69255 1.26062 870.8 191.554)" gradientUnits="userSpaceOnUse"/><radialGradient xlink:href="#d" id="l" cx="304.0166" cy="118.0089" r="47.85445" fx="304.0166" fy="118.0089" gradientTransform="matrix(2.06435 0 0 2.59204 -297.679 -151.747)" gradientUnits="userSpaceOnUse"/><radialGradient xlink:href="#e" id="o" cx="181.001" cy="177.2013" r="71.46001" fx="181.001" fy="177.2013" gradientTransform="matrix(-.24858 2.08314 2.96249 .33417 -255.146 -331.164)" gradientUnits="userSpaceOnUse"/><radialGradient xlink:href="#f" id="p" cx="207.6733" cy="108.0972" r="41.1025" fx="207.6733" fy="108.0972" gradientTransform="matrix(-1.2492 1.34326 -3.89684 -3.4257 880.501 194.905)" gradientUnits="userSpaceOnUse"/><radialGradient xlink:href="#g" id="r" cx="109.6267" cy="135.8619" r="71.46001" fx="109.6267" fy="135.8619" gradientTransform="matrix(-1.93688 -1.043 1.45573 -2.55542 290.525 838.683)" gradientUnits="userSpaceOnUse"/><radialGradient xlink:href="#h" id="j" cx="154.8697" cy="145.9691" r="71.46001" fx="154.8697" fy="145.9691" gradientTransform="matrix(-.0814 -1.93722 2.92674 -.11625 -215.135 632.86)" gradientUnits="userSpaceOnUse"/><filter id="q" width="1.096857" height="1.116448" x="-.04842873" y="-.0582241" color-interpolation-filters="sRGB"><feGaussianBlur stdDeviation="1.700914"/></filter><filter id="k" width="1.033402" height="1.020197" x="-.01670084" y="-.01009856" color-interpolation-filters="sRGB"><feGaussianBlur stdDeviation=".2419367"/></filter><clipPath id="i" clipPathUnits="userSpaceOnUse"><path d="M371.378 193.24H237.083v53.438h77.167c-1.241 7.563-4.026 15.003-8.105 21.786-4.674 7.773-10.451 13.69-16.373 18.196-17.74 13.498-38.42 16.258-52.783 16.258-36.283 0-67.283-23.286-79.285-54.928-.484-1.149-.805-2.335-1.197-3.507a81.1 81.1 0 0 1-4.101-25.448c0-9.226 1.569-18.057 4.43-26.398 11.285-32.897 42.985-57.467 80.179-57.467 7.481 0 14.685.884 21.517 2.648a77.67 77.67 0 0 1 33.425 18.25l40.834-39.712c-24.839-22.616-57.219-36.32-95.844-36.32-30.878 0-59.386 9.553-82.748 25.7-18.945 13.093-34.483 30.625-44.97 50.985-9.753 18.879-15.094 39.8-15.094 62.294 0 22.495 5.35 43.633 15.103 62.337v.126c10.302 19.857 25.368 36.954 43.678 49.988 15.997 11.386 44.68 26.551 84.031 26.551 22.63 0 42.687-4.051 60.375-11.644 12.76-5.478 24.065-12.622 34.301-21.804 13.525-12.132 24.117-27.139 31.347-44.404s11.097-36.79 11.097-57.957c0-9.858-.998-19.87-2.689-28.968Z"/></clipPath></defs><g clip-path="url(#i)" transform="matrix(.95792 0 0 .98525 -90.174 -78.856)"><path fill="url(#j)" d="M92.076 219.959c.148 22.14 6.501 44.982 16.117 63.423v.127c6.949 13.392 16.445 23.97 27.26 34.452l65.327-23.67c-12.36-6.235-14.246-10.055-23.105-17.026-9.054-9.066-15.802-19.473-20.004-31.677h-.17l.17-.127c-2.765-8.058-3.037-16.613-3.14-25.503Z" filter="url(#k)"/><path fill="url(#l)" d="M237.084 79.025c-6.457 22.526-3.989 44.421 0 57.161 7.456.006 14.638.888 21.449 2.647a77.66 77.66 0 0 1 33.424 18.25l41.88-40.726c-24.81-22.59-54.667-37.296-96.754-37.332" filter="url(#k)"/><path fill="url(#m)" d="M236.943 78.847c-31.67 0-60.91 9.798-84.871 26.359a145.5 145.5 0 0 0-24.332 21.15c-1.904 17.744 14.257 39.551 46.262 39.37 15.528-17.936 38.495-29.542 64.056-29.542l.07.002-1.044-57.335q-.07-.002-.14-.004" filter="url(#k)"/><path fill="url(#n)" d="m341.475 226.379-28.268 19.285c-1.24 7.562-4.028 15.002-8.107 21.786-4.674 7.772-10.45 13.69-16.373 18.196-17.702 13.47-38.328 16.244-52.687 16.255-14.842 25.102-17.444 37.675 1.043 57.934 22.877-.016 43.157-4.117 61.046-11.796 12.931-5.551 24.388-12.792 34.761-22.097 13.706-12.295 24.442-27.503 31.769-45s11.245-37.282 11.245-58.734Z" filter="url(#k)"/><path fill="#3086ff" d="M234.996 191.21v57.498h136.006c1.196-7.874 5.152-18.064 5.152-26.5 0-9.858-.996-21.899-2.687-30.998Z" filter="url(#k)"/><path fill="url(#o)" d="M128.39 124.327c-8.394 9.119-15.564 19.326-21.249 30.364-9.753 18.879-15.094 41.83-15.094 64.324 0 .317.026.627.029.944 4.32 8.224 59.666 6.649 62.456 0-.004-.31-.039-.613-.039-.924 0-9.226 1.57-16.026 4.43-24.367 3.53-10.289 9.056-19.763 16.123-27.926 1.602-2.031 5.875-6.397 7.121-9.016.475-.997-.862-1.557-.937-1.908-.083-.393-1.876-.077-2.277-.37-1.275-.929-3.8-1.414-5.334-1.845-3.277-.921-8.708-2.953-11.725-5.06-9.536-6.658-24.417-14.612-33.505-24.216" filter="url(#k)"/><path fill="url(#p)" d="M162.099 155.857c22.112 13.301 28.471-6.714 43.173-12.977l-25.574-52.664a144.7 144.7 0 0 0-26.543 14.504c-12.316 8.512-23.192 18.9-32.176 30.72Z" filter="url(#q)"/><path fill="url(#r)" d="M171.099 290.222c-29.683 10.641-34.33 11.023-37.062 29.29a145 145 0 0 0 16.792 13.984c15.996 11.386 46.766 26.551 86.118 26.551.046 0 .09-.004.137-.004v-59.157l-.094.002c-14.736 0-26.512-3.843-38.585-10.527-2.977-1.648-8.378 2.777-11.123.799-3.786-2.729-12.9 2.35-16.183-.938" filter="url(#k)"/><path fill="url(#s)" d="M219.7 299.023v59.996c5.506.64 11.236 1.028 17.247 1.028 6.026 0 11.855-.307 17.52-.872v-59.748a105 105 0 0 1-17.477 1.461c-5.932 0-11.7-.686-17.29-1.865" filter="url(#k)" opacity=".5"/></g></svg>